<svg width="19" height="19" viewBox="0 0 19 19" fill="none" xmlns="http://www.w3.org/2000/svg">
<circle cx="9.6378" cy="9.06944" r="9.04112" fill="#14CA3C"/>
<path d="M14.9228 6.06724L13.5888 4.65514C13.544 4.60771 13.4831 4.58105 13.4197 4.58105C13.3562 4.58105 13.2954 4.60771 13.2506 4.65514L7.61656 10.6062C7.57174 10.6536 7.51089 10.6802 7.44742 10.6802C7.38396 10.6802 7.32311 10.6536 7.27829 10.6062L5.94433 9.19405C5.89951 9.14663 5.83865 9.11997 5.77519 9.11997C5.71173 9.11997 5.65087 9.14663 5.60606 9.19405L4.27209 10.6062C4.17883 10.7046 4.17883 10.8642 4.27209 10.9627L7.27829 14.1364C7.32311 14.1839 7.38396 14.2105 7.44742 14.2105C7.51089 14.2105 7.57174 14.1839 7.61656 14.1364L14.9228 6.42027C15.0138 6.32222 15.0138 6.1653 14.9228 6.06724Z" fill="white"/>
<mask id="mask0" mask-type="alpha" maskUnits="userSpaceOnUse" x="4" y="4" width="11" height="11">
<path d="M14.9228 6.06724L13.5888 4.65514C13.544 4.60771 13.4831 4.58105 13.4197 4.58105C13.3562 4.58105 13.2954 4.60771 13.2506 4.65514L7.61656 10.6062C7.57174 10.6536 7.51089 10.6802 7.44742 10.6802C7.38396 10.6802 7.32311 10.6536 7.27829 10.6062L5.94433 9.19405C5.89951 9.14663 5.83865 9.11997 5.77519 9.11997C5.71173 9.11997 5.65087 9.14663 5.60606 9.19405L4.27209 10.6062C4.17883 10.7046 4.17883 10.8642 4.27209 10.9627L7.27829 14.1364C7.32311 14.1839 7.38396 14.2105 7.44742 14.2105C7.51089 14.2105 7.57174 14.1839 7.61656 14.1364L14.9228 6.42027C15.0138 6.32222 15.0138 6.1653 14.9228 6.06724Z" fill="white"/>
</mask>
<g mask="url(#mask0)">
</g>
</svg>
